<svg width="163" height="87" viewBox="0 0 163 87" fill="none" xmlns="http://www.w3.org/2000/svg">
<path d="M81.6894 35.5909H67.8377C67.671 35.5931 67.5054 35.5618 67.3509 35.4988C67.1964 35.4359 67.0561 35.3425 66.9382 35.2242C66.8202 35.106 66.7271 34.9652 66.6643 34.8103C66.6015 34.6554 66.5703 34.4894 66.5725 34.3222V20.4318C66.5725 16.4114 68.1652 12.5556 71.0001 9.71272C73.8351 6.86983 77.6802 5.27272 81.6894 5.27272V5.27272C83.6746 5.27272 85.6404 5.66482 87.4744 6.42664C89.3085 7.18845 90.975 8.30506 92.3787 9.71272C93.7825 11.1204 94.896 12.7915 95.6557 14.6307C96.4154 16.4699 96.8064 18.4411 96.8064 20.4318V20.4318C96.8064 22.4225 96.4154 24.3938 95.6557 26.2329C94.896 28.0721 93.7825 29.7433 92.3787 31.1509C90.975 32.5586 89.3085 33.6752 87.4744 34.437C85.6404 35.1988 83.6746 35.5909 81.6894 35.5909V35.5909Z" stroke="#00B37E" stroke-width="2" stroke-linecap="round" stroke-linejoin="round"/>
<path d="M76.4314 18.4545H86.2903" stroke="#996DFF" stroke-width="2" stroke-linecap="round" stroke-linejoin="round"/>
<path d="M76.4314 23.7273H86.2903" stroke="#996DFF" stroke-width="2" stroke-linecap="round" stroke-linejoin="round"/>
<path d="M20.5455 57.2273V54.7273H38V57.2273H30.6818V78H27.8636V57.2273H20.5455ZM60.804 54.7273V78H58.0767L45.3949 59.7273H45.1676V78H42.3494V54.7273H45.0767L57.804 73.0455H58.0312V54.7273H60.804Z" fill="#996DFF"/>
<path d="M66.4432 78V54.7273H69.2614V65.0909H81.6705V54.7273H84.4886V78H81.6705V67.5909H69.2614V78H66.4432ZM97.0852 78.3636C95.4034 78.3636 93.9527 77.9924 92.733 77.25C91.5208 76.5 90.5852 75.4545 89.9261 74.1136C89.2746 72.7652 88.9489 71.197 88.9489 69.4091C88.9489 67.6212 89.2746 66.0455 89.9261 64.6818C90.5852 63.3106 91.5019 62.2424 92.6761 61.4773C93.858 60.7045 95.2367 60.3182 96.8125 60.3182C97.7216 60.3182 98.6193 60.4697 99.5057 60.7727C100.392 61.0758 101.199 61.5682 101.926 62.25C102.653 62.9242 103.233 63.8182 103.665 64.9318C104.097 66.0455 104.312 67.4167 104.312 69.0455V70.1818H90.858V67.8636H101.585C101.585 66.8788 101.388 66 100.994 65.2273C100.608 64.4545 100.055 63.8447 99.3352 63.3977C98.6231 62.9508 97.7822 62.7273 96.8125 62.7273C95.7443 62.7273 94.8201 62.9924 94.0398 63.5227C93.267 64.0455 92.6723 64.7273 92.2557 65.5682C91.839 66.4091 91.6307 67.3106 91.6307 68.2727V69.8182C91.6307 71.1364 91.858 72.2538 92.3125 73.1705C92.7746 74.0795 93.4148 74.7727 94.233 75.25C95.0511 75.7197 96.0019 75.9545 97.0852 75.9545C97.7898 75.9545 98.4261 75.8561 98.9943 75.6591C99.5701 75.4545 100.066 75.1515 100.483 74.75C100.9 74.3409 101.222 73.8333 101.449 73.2273L104.04 73.9545C103.767 74.8333 103.309 75.6061 102.665 76.2727C102.021 76.9318 101.225 77.447 100.278 77.8182C99.3314 78.1818 98.267 78.3636 97.0852 78.3636ZM111.074 54.7273V78H108.392V54.7273H111.074ZM115.986 84.5455V60.5455H118.577V63.3182H118.895C119.092 63.0152 119.365 62.6288 119.713 62.1591C120.069 61.6818 120.577 61.2576 121.236 60.8864C121.902 60.5076 122.804 60.3182 123.94 60.3182C125.41 60.3182 126.705 60.6856 127.827 61.4205C128.948 62.1553 129.823 63.197 130.452 64.5455C131.08 65.8939 131.395 67.4848 131.395 69.3182C131.395 71.1667 131.08 72.7689 130.452 74.125C129.823 75.4735 128.952 76.5189 127.838 77.2614C126.724 77.9962 125.44 78.3636 123.986 78.3636C122.865 78.3636 121.967 78.178 121.293 77.8068C120.618 77.428 120.099 77 119.736 76.5227C119.372 76.0379 119.092 75.6364 118.895 75.3182H118.668V84.5455H115.986ZM118.622 69.2727C118.622 70.5909 118.815 71.7538 119.202 72.7614C119.588 73.7614 120.152 74.5455 120.895 75.1136C121.637 75.6742 122.546 75.9545 123.622 75.9545C124.743 75.9545 125.679 75.6591 126.429 75.0682C127.187 74.4697 127.755 73.6667 128.134 72.6591C128.52 71.6439 128.713 70.5152 128.713 69.2727C128.713 68.0455 128.524 66.9394 128.145 65.9545C127.774 64.9621 127.209 64.178 126.452 63.6023C125.702 63.0189 124.759 62.7273 123.622 62.7273C122.531 62.7273 121.615 63.0038 120.872 63.5568C120.13 64.1023 119.569 64.8674 119.19 65.8523C118.812 66.8295 118.622 67.9697 118.622 69.2727Z" fill="#04D361"/>
</svg>
