<svg width="154" height="26" viewBox="0 0 154 26" fill="none" xmlns="http://www.w3.org/2000/svg">
<path fill-rule="evenodd" clip-rule="evenodd" d="M12.9339 3.43149C10.6348 3.43149 8.4295 4.32831 6.80325 5.92521C5.17695 7.52216 4.26299 9.68844 4.26299 11.9476V20.31C4.26272 20.3305 4.26657 20.3508 4.2744 20.3697C4.28222 20.3886 4.29377 20.4057 4.30829 20.4199C4.3228 20.4342 4.33997 20.4453 4.35875 20.4528C4.37753 20.4603 4.39758 20.464 4.41774 20.4637L4.4259 20.4636L12.9339 20.4637C14.0724 20.4637 15.1997 20.2435 16.2516 19.8157C17.3035 19.3878 18.2593 18.7607 19.0646 17.97C19.8698 17.1793 20.5087 16.2405 20.9446 15.2071C21.3805 14.1738 21.6048 13.0662 21.6048 11.9476C21.6048 10.829 21.3805 9.72142 20.9446 8.68808C20.5087 7.65473 19.8698 6.71593 19.0646 5.92521C18.2593 5.13449 17.3035 4.50736 16.2516 4.07952C15.1997 3.65168 14.0724 3.43149 12.9339 3.43149ZM12.9339 21.6666H4.4293C4.24621 21.6684 4.06462 21.6344 3.89507 21.5667C3.72405 21.4985 3.5688 21.3973 3.43844 21.2693C3.30809 21.1413 3.20525 20.9891 3.13593 20.8216C3.06719 20.6555 3.03275 20.4778 3.03455 20.2987V11.9476C3.03455 9.37049 4.0771 6.8986 5.9334 5.0758C7.78976 3.25295 10.3079 2.22858 12.9339 2.22858C14.2342 2.22858 15.5216 2.48006 16.7228 2.96862C17.924 3.45718 19.0153 4.17323 19.9344 5.0758C20.8536 5.97837 21.5826 7.04979 22.08 8.22883C22.5773 9.40788 22.8333 10.6715 22.8333 11.9476C22.8333 13.2237 22.5773 14.4873 22.08 15.6664C21.5826 16.8454 20.8536 17.9168 19.9344 18.8194C19.0153 19.722 17.924 20.438 16.7228 20.9266C15.5216 21.4151 14.2342 21.6666 12.9339 21.6666Z" fill="#00B37E"/>
<path fill-rule="evenodd" clip-rule="evenodd" d="M9.09015 10.7583C9.09015 10.4262 9.36515 10.1569 9.70437 10.1569H15.7599C16.0991 10.1569 16.3741 10.4262 16.3741 10.7583C16.3741 11.0905 16.0991 11.3598 15.7599 11.3598H9.70437C9.36515 11.3598 9.09015 11.0905 9.09015 10.7583Z" fill="#996DFF"/>
<path fill-rule="evenodd" clip-rule="evenodd" d="M9.09015 13.9297C9.09015 13.5975 9.36515 13.3282 9.70437 13.3282H15.7599C16.0991 13.3282 16.3741 13.5975 16.3741 13.9297C16.3741 14.2619 16.0991 14.5311 15.7599 14.5311H9.70437C9.36515 14.5311 9.09015 14.2619 9.09015 13.9297Z" fill="#996DFF"/>
<path d="M32.0625 5.71875V4H44.0625V5.71875H39.0313V20H37.0938V5.71875H32.0625ZM59.7402 4V20H57.8652L49.1465 7.4375H48.9902V20H47.0527V4H48.9277L57.6777 16.5937H57.834V4H59.7402Z" fill="#996DFF"/>
<path d="M63.6172 20V4H65.5547V11.125H74.0859V4H76.0234V20H74.0859V12.8437H65.5547V20H63.6172ZM84.6836 20.25C83.5273 20.25 82.5299 19.9948 81.6914 19.4844C80.8581 18.9688 80.2148 18.25 79.7617 17.3281C79.3138 16.401 79.0898 15.3229 79.0898 14.0938C79.0898 12.8646 79.3138 11.7812 79.7617 10.8437C80.2148 9.90104 80.8451 9.16667 81.6523 8.64062C82.4648 8.10937 83.4128 7.84375 84.4961 7.84375C85.1211 7.84375 85.7383 7.94792 86.3477 8.15625C86.957 8.36458 87.5117 8.70312 88.0117 9.17188C88.5117 9.63542 88.9102 10.25 89.207 11.0156C89.5039 11.7812 89.6523 12.724 89.6523 13.8437V14.625H80.4023V13.0312H87.7773C87.7773 12.3542 87.6419 11.75 87.3711 11.2187C87.1055 10.6875 86.7253 10.2682 86.2305 9.96094C85.7409 9.65365 85.1628 9.5 84.4961 9.5C83.7617 9.5 83.1263 9.68229 82.5898 10.0469C82.0586 10.4062 81.6497 10.875 81.3633 11.4531C81.0768 12.0312 80.9336 12.651 80.9336 13.3125V14.375C80.9336 15.2813 81.0898 16.0495 81.4023 16.6797C81.7201 17.3047 82.1602 17.7812 82.7227 18.1094C83.2852 18.4323 83.9388 18.5938 84.6836 18.5938C85.168 18.5938 85.6055 18.526 85.9961 18.3906C86.3919 18.25 86.7331 18.0417 87.0195 17.7656C87.306 17.4844 87.5273 17.1354 87.6836 16.7187L89.4648 17.2188C89.2773 17.8229 88.9622 18.3542 88.5195 18.8125C88.0768 19.2656 87.5299 19.6198 86.8789 19.875C86.2279 20.125 85.4961 20.25 84.6836 20.25ZM94.3008 4V20H92.457V4H94.3008ZM97.6777 24.5V8H99.459V9.90625H99.6777C99.8132 9.69792 100.001 9.43229 100.24 9.10937C100.485 8.78125 100.834 8.48958 101.287 8.23438C101.745 7.97396 102.365 7.84375 103.146 7.84375C104.157 7.84375 105.048 8.09635 105.818 8.60156C106.589 9.10677 107.191 9.82292 107.623 10.75C108.055 11.6771 108.271 12.7708 108.271 14.0313C108.271 15.3021 108.055 16.4036 107.623 17.3359C107.191 18.263 106.592 18.9818 105.826 19.4922C105.061 19.9974 104.178 20.25 103.178 20.25C102.407 20.25 101.79 20.1224 101.326 19.8672C100.863 19.6068 100.506 19.3125 100.256 18.9844C100.006 18.651 99.8132 18.375 99.6777 18.1562H99.5215V24.5H97.6777ZM99.4902 14C99.4902 14.9062 99.623 15.7057 99.8887 16.3984C100.154 17.0859 100.542 17.625 101.053 18.0156C101.563 18.401 102.188 18.5938 102.928 18.5938C103.699 18.5938 104.342 18.3906 104.857 17.9844C105.378 17.5729 105.769 17.0208 106.029 16.3281C106.295 15.6302 106.428 14.8542 106.428 14C106.428 13.1562 106.298 12.3958 106.037 11.7187C105.782 11.0365 105.394 10.4974 104.873 10.1016C104.357 9.70052 103.709 9.5 102.928 9.5C102.178 9.5 101.548 9.6901 101.037 10.0703C100.527 10.4453 100.141 10.9714 99.8809 11.6484C99.6204 12.3203 99.4902 13.1042 99.4902 14Z" fill="#04D361"/>
</svg>
